<svg width="123" height="24" viewBox="0 0 123 24" fill="none" xmlns="http://www.w3.org/2000/svg">
<g clip-path="url(#clip0_29_8)">
<path d="M25.4031 8.82L21.8201 2.936C21.2748 2.0394 20.5079 1.29831 19.5931 0.784086C18.6783 0.269863 17.6465 -0.000166941 16.5971 7.74308e-08H9.69814C8.649 -9.96721e-05 7.6175 0.26986 6.70292 0.783895C5.78834 1.29793 5.02148 2.03873 4.47614 2.935L0.89214 8.82C0.308651 9.77771 0 10.8775 0 11.999C0 13.1205 0.308651 14.2203 0.89214 15.178L4.47614 21.064C5.02136 21.9605 5.78817 22.7015 6.70276 23.2157C7.61734 23.7299 8.64891 24 9.69814 24H16.5981C17.6471 23.9999 18.6784 23.7299 19.5928 23.2159C20.5072 22.7018 21.2739 21.9611 21.8191 21.065L25.4031 15.179C25.9866 14.2213 26.2953 13.1215 26.2953 12C26.2953 10.8785 25.9866 9.77871 25.4031 8.821V8.82Z" fill="url(#paint0_linear_29_8)"/>
<mask id="mask0_29_8" style="mask-type:luminance" maskUnits="userSpaceOnUse" x="5" y="2" width="16" height="17">
<path d="M21 2H5V18.549H21V2Z" fill="white"/>
</mask>
<g mask="url(#mask0_29_8)">
<mask id="mask1_29_8" style="mask-type:alpha" maskUnits="userSpaceOnUse" x="5" y="2" width="16" height="17">
<path d="M10.2776 7.34122L12.9582 2L15.6388 7.34122H10.2776Z" fill="#D9D9D9"/>
<path d="M9.94239 8.0417H19.1571L17.9005 11.0188L11.9529 10.975L11.4503 11.8944H13.5445L14.8848 14.5212H10.11L9.60735 15.4843H15.3874L16.644 18.1988L5 18.2864L9.94239 8.0417Z" fill="#D9D9D9"/>
<path d="M17.5656 11.7193H14.3823L17.6493 18.549H21.0001L17.5656 11.7193Z" fill="#D9D9D9"/>
</mask>
<g mask="url(#mask1_29_8)">
<path d="M21 2H5V18.549H21V2Z" fill="white"/>
</g>
</g>
<path d="M29.7124 17V7.18182H36.7884V9.32955H32.3779V11.017H36.4241V13.1648H32.3779V14.8523H36.7692V17H29.7124ZM38.2254 17V15.5426L41.447 11.6882V11.6499H38.3405V9.63636H44.5727V11.2472L41.6388 14.9482V14.9865H44.6878V17H38.2254ZM46.2278 17V15.5426L49.4494 11.6882V11.6499H46.3429V9.63636H52.5752V11.2472L49.6412 14.9482V14.9865H52.6902V17H46.2278ZM56.2054 17.1151C55.7356 17.1151 55.3201 17.0384 54.959 16.8849C54.601 16.7283 54.3198 16.4918 54.1152 16.1754C53.9107 15.859 53.8084 15.4563 53.8084 14.9673C53.8084 14.5646 53.8771 14.2211 54.0146 13.9366C54.152 13.649 54.3438 13.4141 54.5898 13.2319C54.8359 13.0497 55.122 12.9107 55.448 12.8148C55.7772 12.7189 56.1319 12.6566 56.5123 12.6278C56.9245 12.5959 57.2553 12.5575 57.5046 12.5128C57.7571 12.4648 57.9393 12.3993 58.0511 12.3162C58.163 12.2299 58.2189 12.1165 58.2189 11.9759V11.9567C58.2189 11.7649 58.1454 11.6179 57.9984 11.5156C57.8514 11.4134 57.6628 11.3622 57.4327 11.3622C57.1802 11.3622 56.9741 11.4181 56.8143 11.53C56.6577 11.6387 56.5634 11.8065 56.5314 12.0334H54.0961C54.128 11.5859 54.2702 11.1737 54.5227 10.7965C54.7784 10.4162 55.1507 10.1126 55.6397 9.88565C56.1287 9.65554 56.7392 9.54048 57.4711 9.54048C57.9984 9.54048 58.4714 9.60281 58.8901 9.72745C59.3088 9.8489 59.6651 10.0199 59.9592 10.2404C60.2532 10.4577 60.4769 10.7134 60.6303 11.0075C60.7869 11.2983 60.8652 11.6147 60.8652 11.9567V17H58.3915V15.9645H58.334C58.187 16.2393 58.008 16.4615 57.7971 16.6309C57.5893 16.8002 57.3512 16.9233 57.0827 17C56.8175 17.0767 56.525 17.1151 56.2054 17.1151ZM57.0684 15.4467C57.2697 15.4467 57.4583 15.4052 57.6341 15.3221C57.813 15.239 57.9585 15.1191 58.0703 14.9625C58.1822 14.8059 58.2381 14.6158 58.2381 14.392V13.7784C58.1678 13.8072 58.0927 13.8343 58.0128 13.8599C57.9361 13.8855 57.853 13.9094 57.7635 13.9318C57.6772 13.9542 57.5845 13.975 57.4854 13.9941C57.3896 14.0133 57.2889 14.0309 57.1834 14.0469C56.9789 14.0788 56.8111 14.1316 56.68 14.2051C56.5522 14.2754 56.4563 14.3633 56.3924 14.4688C56.3317 14.571 56.3013 14.6861 56.3013 14.8139C56.3013 15.0185 56.3732 15.1751 56.517 15.2837C56.6609 15.3924 56.8446 15.4467 57.0684 15.4467ZM66.521 9.63636V11.554H61.6694V9.63636H66.521ZM62.6091 7.87216H65.2554V14.6317C65.2554 14.734 65.2729 14.8203 65.3081 14.8906C65.3433 14.9577 65.3976 15.0089 65.4711 15.044C65.5446 15.076 65.6389 15.092 65.754 15.092C65.8339 15.092 65.9265 15.0824 66.032 15.0632C66.1407 15.044 66.2206 15.0281 66.2717 15.0153L66.6552 16.8754C66.537 16.9105 66.3676 16.9537 66.1471 17.0048C65.9297 17.0559 65.6709 17.0895 65.3704 17.1055C64.7632 17.1374 64.2534 17.0751 63.8411 16.9185C63.4288 16.7587 63.1188 16.5078 62.9111 16.1658C62.7033 15.8239 62.6027 15.3956 62.6091 14.881V7.87216ZM72.8024 17H69.926L73.1667 7.18182H76.8102L80.051 17H77.1745L75.0268 9.88565H74.9501L72.8024 17ZM72.2654 13.1264H77.6731V15.1207H72.2654V13.1264ZM80.9966 17V7.18182H83.6429V10.9212H83.6812C83.7771 10.6719 83.9177 10.4434 84.1031 10.2356C84.2885 10.0247 84.5186 9.85689 84.7935 9.73224C85.0683 9.6044 85.3879 9.54048 85.7523 9.54048C86.2381 9.54048 86.6999 9.66992 87.1377 9.9288C87.5788 10.1877 87.9367 10.5952 88.2116 11.1513C88.4897 11.7074 88.6287 12.4297 88.6287 13.3182C88.6287 14.1683 88.496 14.873 88.2308 15.4324C87.9687 15.9917 87.6171 16.4087 87.1761 16.6836C86.7382 16.9585 86.2572 17.0959 85.7331 17.0959C85.3879 17.0959 85.0795 17.04 84.8078 16.9281C84.5394 16.813 84.3093 16.658 84.1175 16.4631C83.9289 16.2649 83.7835 16.0412 83.6812 15.7919H83.6237V17H80.9966ZM83.5854 13.3182C83.5854 13.6761 83.6317 13.9862 83.7244 14.2482C83.8203 14.5071 83.9545 14.7085 84.1271 14.8523C84.3029 14.9929 84.5122 15.0632 84.7551 15.0632C84.998 15.0632 85.2041 14.9945 85.3735 14.8571C85.5461 14.7164 85.6772 14.5167 85.7666 14.2578C85.8593 13.9957 85.9057 13.6825 85.9057 13.3182C85.9057 12.9538 85.8593 12.6422 85.7666 12.3833C85.6772 12.1213 85.5461 11.9215 85.3735 11.7841C85.2041 11.6435 84.998 11.5732 84.7551 11.5732C84.5122 11.5732 84.3029 11.6435 84.1271 11.7841C83.9545 11.9215 83.8203 12.1213 83.7244 12.3833C83.6317 12.6422 83.5854 12.9538 83.5854 13.3182ZM92.4016 17.0959C91.8774 17.0959 91.3948 16.9585 90.9538 16.6836C90.5159 16.4087 90.1644 15.9917 89.8991 15.4324C89.637 14.873 89.506 14.1683 89.506 13.3182C89.506 12.4297 89.6434 11.7074 89.9183 11.1513C90.1963 10.5952 90.5543 10.1877 90.9921 9.9288C91.4332 9.66992 91.8966 9.54048 92.3824 9.54048C92.7468 9.54048 93.0664 9.6044 93.3412 9.73224C93.6161 9.85689 93.8462 10.0247 94.0316 10.2356C94.2169 10.4434 94.3576 10.6719 94.4534 10.9212H94.4918V7.18182H97.1381V17H94.511V15.7919H94.4534C94.3512 16.0412 94.2041 16.2649 94.0124 16.4631C93.8238 16.658 93.5937 16.813 93.322 16.9281C93.0536 17.04 92.7468 17.0959 92.4016 17.0959ZM93.3796 15.0632C93.6225 15.0632 93.8302 14.9929 94.0028 14.8523C94.1786 14.7085 94.3128 14.5071 94.4055 14.2482C94.5014 13.9862 94.5493 13.6761 94.5493 13.3182C94.5493 12.9538 94.5014 12.6422 94.4055 12.3833C94.3128 12.1213 94.1786 11.9215 94.0028 11.7841C93.8302 11.6435 93.6225 11.5732 93.3796 11.5732C93.1367 11.5732 92.9289 11.6435 92.7563 11.7841C92.587 11.9215 92.4559 12.1213 92.3632 12.3833C92.2737 12.6422 92.229 12.9538 92.229 13.3182C92.229 13.6825 92.2737 13.9957 92.3632 14.2578C92.4559 14.5167 92.587 14.7164 92.7563 14.8571C92.9289 14.9945 93.1367 15.0632 93.3796 15.0632ZM101.966 17.1342C101.179 17.1342 100.502 16.984 99.933 16.6836C99.3673 16.38 98.9311 15.9453 98.6242 15.3796C98.3206 14.8107 98.1688 14.13 98.1688 13.3374C98.1688 12.5767 98.3222 11.9119 98.629 11.343C98.9359 10.7741 99.3689 10.3315 99.9282 10.0151C100.488 9.69869 101.148 9.54048 101.908 9.54048C102.464 9.54048 102.968 9.62678 103.418 9.79936C103.869 9.97195 104.254 10.2228 104.574 10.552C104.893 10.878 105.139 11.2743 105.312 11.7409C105.485 12.2076 105.571 12.7333 105.571 13.3182V13.9318H98.9934V12.4744H103.135C103.132 12.2635 103.078 12.0781 102.972 11.9183C102.87 11.7553 102.731 11.6291 102.555 11.5396C102.383 11.4469 102.186 11.4006 101.966 11.4006C101.752 11.4006 101.555 11.4469 101.376 11.5396C101.197 11.6291 101.053 11.7537 100.945 11.9135C100.839 12.0733 100.783 12.2603 100.777 12.4744V14.0469C100.777 14.2834 100.826 14.4943 100.925 14.6797C101.024 14.8651 101.167 15.0105 101.352 15.1159C101.537 15.2214 101.761 15.2741 102.023 15.2741C102.205 15.2741 102.372 15.2486 102.522 15.1974C102.675 15.1463 102.806 15.0728 102.915 14.9769C103.024 14.8778 103.103 14.7596 103.155 14.6222H105.571C105.488 15.1335 105.291 15.5778 104.981 15.9549C104.671 16.3288 104.26 16.6197 103.749 16.8274C103.241 17.032 102.646 17.1342 101.966 17.1342ZM110.179 17.1342C109.393 17.1342 108.715 16.984 108.146 16.6836C107.581 16.38 107.144 15.9453 106.838 15.3796C106.534 14.8107 106.382 14.13 106.382 13.3374C106.382 12.5767 106.536 11.9119 106.842 11.343C107.149 10.7741 107.582 10.3315 108.142 10.0151C108.701 9.69869 109.361 9.54048 110.122 9.54048C110.678 9.54048 111.181 9.62678 111.632 9.79936C112.082 9.97195 112.467 10.2228 112.787 10.552C113.107 10.878 113.353 11.2743 113.525 11.7409C113.698 12.2076 113.784 12.7333 113.784 13.3182V13.9318H107.207V12.4744H111.349C111.346 12.2635 111.291 12.0781 111.186 11.9183C111.084 11.7553 110.945 11.6291 110.769 11.5396C110.596 11.4469 110.4 11.4006 110.179 11.4006C109.965 11.4006 109.768 11.4469 109.589 11.5396C109.41 11.6291 109.267 11.7537 109.158 11.9135C109.052 12.0733 108.997 12.2603 108.99 12.4744V14.0469C108.99 14.2834 109.04 14.4943 109.139 14.6797C109.238 14.8651 109.38 15.0105 109.565 15.1159C109.751 15.2214 109.975 15.2741 110.237 15.2741C110.419 15.2741 110.585 15.2486 110.735 15.1974C110.889 15.1463 111.02 15.0728 111.128 14.9769C111.237 14.8778 111.317 14.7596 111.368 14.6222H113.784C113.701 15.1335 113.505 15.5778 113.195 15.9549C112.884 16.3288 112.474 16.6197 111.962 16.8274C111.454 17.032 110.86 17.1342 110.179 17.1342ZM117.51 12.858V17H114.864V9.63636H117.376V11.0362H117.453C117.613 10.5696 117.894 10.2037 118.297 9.93839C118.702 9.67312 119.175 9.54048 119.716 9.54048C120.237 9.54048 120.689 9.66033 121.072 9.90004C121.459 10.1365 121.758 10.4625 121.969 10.878C122.183 11.2935 122.288 11.7681 122.285 12.3018V17H119.639V12.858C119.642 12.4936 119.549 12.2076 119.361 11.9998C119.175 11.7921 118.917 11.6882 118.584 11.6882C118.367 11.6882 118.177 11.7362 118.014 11.832C117.854 11.9247 117.731 12.0589 117.645 12.2347C117.558 12.4073 117.514 12.6151 117.51 12.858Z" fill="black"/>
</g>
<defs>
<linearGradient id="paint0_linear_29_8" x1="6" y1="0.999999" x2="21" y2="23" gradientUnits="userSpaceOnUse">
<stop stop-color="#00A4DF"/>
<stop offset="1" stop-color="#0072DF"/>
</linearGradient>
<clipPath id="clip0_29_8">
<rect width="123" height="24" fill="white"/>
</clipPath>
</defs>
</svg>
