<svg width="359" height="50" viewBox="0 0 359 50" fill="none" xmlns="http://www.w3.org/2000/svg">
<path d="M84.8633 10.0703L83.9648 14.5234H69.9805L68.5742 21.5547H81.8945L80.9766 26.1836H67.5977L66.1328 33.5078H80.4492L79.5508 38H60.1562L65.7422 10.0703H84.8633ZM110.137 10.0703L109.238 14.5625L90.5859 33.5078H105.449L104.551 38H83.8477L84.7461 33.5078L103.652 14.5625H88.9258L89.8242 10.0703H110.137ZM134.551 10.0703L133.652 14.5625L115 33.5078H129.863L128.965 38H108.262L109.16 33.5078L128.066 14.5625H113.34L114.238 10.0703H134.551ZM136.23 38H130.723L148.164 10.0703H153.73L160.254 38H154.883L153.223 30.3828H143.945L146.621 25.8906H152.246L149.941 15.4023L136.23 38ZM187.52 10.0703L186.621 14.5625H178.613L173.926 38H168.75L173.438 14.5625H165.43L166.328 10.0703H187.52ZM196.738 38H191.23L208.672 10.0703H214.238L220.762 38H215.391L213.73 30.3828H204.453L207.129 25.8906H212.754L210.449 15.4023L196.738 38ZM224.18 38L229.766 10.0703H242.852C248.164 10.0703 250.384 12.2383 249.512 16.5742C248.887 19.7513 246.706 22.0234 242.969 23.3906C246.523 24.0807 247.949 26.1966 247.246 29.7383C246.139 35.2461 242.676 38 236.855 38H224.18ZM237.539 33.5078C239.831 33.5078 241.211 32.3359 241.68 29.9922C242.266 27.0885 240.846 25.6367 237.422 25.6367H235.859L236.523 22.2969C240.964 21.5807 243.47 19.7839 244.043 16.9062C244.355 15.3438 243.548 14.5625 241.621 14.5625H234.043L230.254 33.5078H237.539ZM261.836 33.5078C267.63 33.5078 271.211 30.0964 272.578 23.2734C273.737 17.4661 271.419 14.5625 265.625 14.5625H259.863L256.074 33.5078H261.836ZM250 38L255.586 10.0703H266.523C275.768 10.0703 279.512 14.4714 277.754 23.2734C275.788 33.0911 270.182 38 260.938 38H250ZM303.926 10.0703L303.027 14.5234H289.043L287.637 21.5547H300.957L300.039 26.1836H286.66L285.195 33.5078H299.512L298.613 38H279.219L284.805 10.0703H303.926ZM328.105 10.0703L327.207 14.5234H313.223L311.816 21.5547H325.137L324.219 26.1836H310.84L309.375 33.5078H323.691L322.793 38H303.398L308.984 10.0703H328.105ZM327.578 38L333.164 10.0703H338.34L349.102 30.0312L353.086 10.0703H358.066L352.48 38H347.305L336.641 17.6094L332.559 38H327.578Z" fill="black"/>
<g clip-path="url(#clip0_6_76)">
<path d="M25 50C38.8071 50 50 38.8071 50 25C50 11.1929 38.8071 0 25 0C11.1929 0 0 11.1929 0 25C0 38.8071 11.1929 50 25 50Z" fill="black"/>
<mask id="mask0_6_76" style="mask-type:luminance" maskUnits="userSpaceOnUse" x="7" y="4" width="35" height="34">
<path d="M42 4.5H7.75V37.75H42V4.5Z" fill="white"/>
</mask>
<g mask="url(#mask0_6_76)">
<mask id="mask1_6_76" style="mask-type:alpha" maskUnits="userSpaceOnUse" x="7" y="4" width="35" height="34">
<path d="M19.0474 15.2315L24.7856 4.5L30.5237 15.2315H19.0474Z" fill="#D9D9D9"/>
<path d="M18.3298 16.6389H38.055L35.3652 22.6204L22.6335 22.5324L21.5576 24.3797H26.0405L28.9097 29.6575H18.6885L17.6126 31.5925H29.9855L32.6755 37.0463L7.75 37.2223L18.3298 16.6389Z" fill="#D9D9D9"/>
<path d="M34.6482 24.0278H27.834L34.8275 37.7501H42.0002L34.6482 24.0278Z" fill="#D9D9D9"/>
</mask>
<g mask="url(#mask1_6_76)">
<path d="M42 4.5H7.75V37.75H42V4.5Z" fill="url(#paint0_linear_6_76)"/>
</g>
</g>
</g>
<defs>
<linearGradient id="paint0_linear_6_76" x1="7.75" y1="4.5" x2="41.3525" y2="38.392" gradientUnits="userSpaceOnUse">
<stop stop-color="#00A6E0"/>
<stop offset="1" stop-color="#0071E0"/>
</linearGradient>
<clipPath id="clip0_6_76">
<rect width="50" height="50" fill="white"/>
</clipPath>
</defs>
</svg>
