<svg width="27" height="24" viewBox="0 0 27 24" fill="none" xmlns="http://www.w3.org/2000/svg">
<path d="M25.4031 8.82L21.8201 2.936C21.2748 2.0394 20.5079 1.29831 19.5931 0.784086C18.6783 0.269863 17.6465 -0.000166941 16.5971 7.74308e-08H9.69814C8.649 -9.96721e-05 7.6175 0.26986 6.70292 0.783895C5.78834 1.29793 5.02148 2.03873 4.47614 2.935L0.89214 8.82C0.308651 9.77771 0 10.8775 0 11.999C0 13.1205 0.308651 14.2203 0.89214 15.178L4.47614 21.064C5.02136 21.9605 5.78817 22.7015 6.70276 23.2157C7.61734 23.7299 8.64891 24 9.69814 24H16.5981C17.6471 23.9999 18.6784 23.7299 19.5928 23.2159C20.5072 22.7018 21.2739 21.9611 21.8191 21.065L25.4031 15.179C25.9866 14.2213 26.2953 13.1215 26.2953 12C26.2953 10.8785 25.9866 9.77871 25.4031 8.821V8.82Z" fill="url(#paint0_linear_45_37)"/>
<mask id="mask0_45_37" style="mask-type:luminance" maskUnits="userSpaceOnUse" x="5" y="2" width="16" height="17">
<path d="M21 2H5V18.549H21V2Z" fill="white"/>
</mask>
<g mask="url(#mask0_45_37)">
<mask id="mask1_45_37" style="mask-type:alpha" maskUnits="userSpaceOnUse" x="5" y="2" width="16" height="17">
<path d="M10.2776 7.34122L12.9582 2L15.6388 7.34122H10.2776Z" fill="#D9D9D9"/>
<path d="M9.94239 8.0417H19.1571L17.9005 11.0188L11.9529 10.975L11.4503 11.8944H13.5445L14.8848 14.5212H10.11L9.60735 15.4843H15.3874L16.644 18.1988L5 18.2864L9.94239 8.0417Z" fill="#D9D9D9"/>
<path d="M17.5656 11.7193H14.3823L17.6493 18.549H21.0001L17.5656 11.7193Z" fill="#D9D9D9"/>
</mask>
<g mask="url(#mask1_45_37)">
<path d="M21 2H5V18.549H21V2Z" fill="white"/>
</g>
</g>
<defs>
<linearGradient id="paint0_linear_45_37" x1="6" y1="0.999999" x2="21" y2="23" gradientUnits="userSpaceOnUse">
<stop stop-color="#00A4DF"/>
<stop offset="1" stop-color="#0072DF"/>
</linearGradient>
</defs>
</svg>
